<?xml version="1.0" encoding="utf-8"?>
<!-- Generator: Adobe Illustrator 16.0.0, SVG Export Plug-In . SVG Version: 6.00 Build 0)  -->
<!DOCTYPE svg PUBLIC "-//W3C//DTD SVG 1.1//EN" "http://www.w3.org/Graphics/SVG/1.1/DTD/svg11.dtd">
<svg version="1.1" id="Layer_1" xmlns="http://www.w3.org/2000/svg" xmlns:xlink="http://www.w3.org/1999/xlink" x="0px" y="0px"
	 width="351.577px" height="415.576px" viewBox="0 0 351.577 415.576" enable-background="new 0 0 351.577 415.576"
	 xml:space="preserve">
<path opacity="0.7" fill="#E3ECEB" d="M320.506,314.222c0,0-167.76,123.778-323.133,91.778c0,0-11.962-55.045-37.373-121.522
	L320.506,314.222z"/>
<path opacity="0.7" fill="#E3ECEB" d="M34.834,319.585c0,0-32.917-23.45-26.83-66.037c6.088-42.588,54.862-46.376,75.837-66.236
	c26.211-24.819-1.084-83.986,56.222-92.486c56.818-8.43,66.829,69.001,110.73,75.824c76.58,11.901,110.298,71.647,68.153,148.936"/>
<path fill="#E3ECEB" d="M85.431,152.896c-0.322,6.856-2.338,18.347-8.573,26.8c-5.789,7.85-14.237,12.257-18.764,9.235
	c-2.699-1.8-1.437-8.097,2.637-19.069c4.074-10.97,2.888-27.518,13.502-27.518C83.572,142.345,85.61,149.081,85.431,152.896z"/>
<path fill="#E3ECEB" d="M274.959,149.034c-4.159,3.854-7.591,20.021,4.272,23.213c16.713,4.5,26.402,13.821,33.465,11.465
	c6.518-2.178,9.42-15.393-2.913-26.119C297.448,146.867,283.23,141.372,274.959,149.034z"/>
<g>
	<path fill="#FFFFFF" d="M260.531,293.613c0,1.761-25.033,16.68-25.033,16.68l-47.812,10.434l-6.258,0.104l-0.701-15.315
		l-21.121,15.315H125.91c0,0,27.946-41.96,37.995-59.296c6.922-11.94,18.497-31.377,18.497-31.377l38.119-12.97l29.745,15.285
		c0,0,7.053,18.291,7.7,21.662C258.604,257.508,260.531,291.842,260.531,293.613z"/>
	<g>
		<path fill="#90BCB7" d="M177.721,261.848l4.205,56.705c0.021,0.297-0.201,0.555-0.497,0.577c-0.296,0.021-0.554-0.201-0.576-0.497
			c0-0.003-0.001-0.008-0.001-0.01L177.721,261.848z"/>
	</g>
	<g>
		<g>
			<path fill="#34549C" d="M176.578,304.432l-0.862,1.378c-0.358,0.573-1.112,0.745-1.686,0.386l-28.622-17.938
				c-0.573-0.355-0.746-1.111-0.387-1.684l0.861-1.377c0.358-0.571,1.112-0.745,1.686-0.386l28.624,17.938
				C176.765,303.105,176.937,303.861,176.578,304.432z"/>
			
				<ellipse transform="matrix(0.531 -0.8474 0.8474 0.531 -171.6828 246.5799)" fill="#C3E6E4" cx="136.906" cy="278.379" rx="4.995" ry="12.989"/>
			<path fill="#34549C" d="M137.996,276.638c-4.701-2.946-9.422-4.501-12.453-4.334l-0.915-1.87l-2.008,3.205
				c-1.647,2.631,2.563,8.24,9.406,12.528c6.843,4.289,13.728,5.632,15.376,3l2.008-3.201l-2.136-0.124
				C146.062,283.06,142.639,279.547,137.996,276.638z"/>
			
				<ellipse transform="matrix(0.5312 -0.8473 0.8473 0.5312 -171.4711 246.5264)" fill="#AAD8D3" cx="137.02" cy="278.2" rx="5.622" ry="14.623"/>
			
				<ellipse transform="matrix(0.5309 -0.8474 0.8474 0.5309 -171.4796 246.6064)" fill="#E0F2F2" cx="137.019" cy="278.2" rx="4.322" ry="12.439"/>
		</g>
		<path fill="#F3725D" d="M189.54,311.933c0,0-2.388,0.018-5.039,0.018c-2.548,0-5.339-0.018-6.424-0.072
			c-2.23-0.125-9.255,0.12-10.895-2.344c-1.638-2.464-2.575-11.65-3.688-13.166c-1.115-1.53-5.441-4.104-7.081-5.51
			c-1.639-1.404-2.106-4.036,0-4.036c2.107,0,9.834,3.634,12.298,5.507c2.453,1.872,2.688,5.534,7.604,7.054
			c4.026,1.253,8.439,1.281,9.908,1.246c0.319,0,0.498-0.011,0.498-0.011L189.54,311.933z"/>
		<path fill="#F3725D" d="M164.198,295.37c0,0-6.399-0.353-7.278-0.528c-0.878-0.176-3.822-1.762-3.822-1.762
			s0.115,3.422,0.702,4.162c0.585,0.74,0.975,1.169,0.975,1.169s-0.118,2.03,0.585,2.89c0.704,0.858,1.289,1.326,1.289,1.326
			s-0.273,2.03,0.232,2.886c0.509,0.859,1.602,1.368,1.602,1.368s-0.039,1.17,0.352,1.835c0.39,0.661,1.13,1.326,2.379,1.637
			c1.248,0.313,11.595,1.274,11.595,1.274l-1.994-7.4"/>
		<path fill="#DE5740" d="M189.54,311.933c0,0-2.388,0.018-5.039,0.018l1.723-11.321c0.319,0,0.498-0.011,0.498-0.011
			L189.54,311.933z"/>
	</g>
	<g>
		<path fill="#90BCB7" d="M227.415,223.37c0.397,1.091,0.737,2.201,1.09,3.31c0.332,1.113,0.64,2.233,0.961,3.351
			c0.338,1.113,0.596,2.246,0.866,3.377l0.811,3.393l0.039,0.162l-0.117,0.141l-5.232,6.309l0.032-0.549l5.341,7.938l0.161,0.239
			l-0.132,0.263c-2.096,4.172-4.061,8.422-6.039,12.656c-1.957,4.247-3.842,8.527-5.608,12.854
			c-1.776,4.322-3.495,8.673-4.956,13.111c-0.368,1.107-0.715,2.223-1.057,3.34c-0.345,1.116-0.652,2.242-0.953,3.371
			c-0.283,1.133-0.546,2.271-0.767,3.419c-0.217,1.148-0.394,2.304-0.512,3.47c0.057-1.17,0.157-2.339,0.325-3.501
			c0.173-1.161,0.39-2.314,0.626-3.464c0.496-2.295,1.087-4.569,1.771-6.814c0.674-2.248,1.421-4.473,2.2-6.686
			c0.783-2.212,1.589-4.416,2.466-6.591c1.736-4.358,3.591-8.667,5.518-12.941c1.915-4.281,3.973-8.491,6.101-12.678l0.029,0.502
			l-5.274-7.983l-0.192-0.291l0.225-0.258l5.383-6.18l-0.078,0.303l-0.691-3.404l-0.345-1.704c-0.101-0.57-0.237-1.134-0.362-1.699
			c-0.257-1.13-0.501-2.264-0.77-3.392C227.978,225.624,227.729,224.488,227.415,223.37z"/>
	</g>
	<g>
		<path fill="#90BCB7" d="M184.501,240.151c-0.238,1.81-0.512,3.613-0.777,5.419c-0.257,1.806-0.546,3.606-0.837,5.407l-0.102-0.302
			l2.762,2.445l0.161,0.143l-0.039,0.23c-0.558,3.359-1.227,6.697-1.835,10.047l-0.063-0.354c1.544,2.525,3.054,5.065,4.509,7.641
			c1.445,2.58,2.902,5.152,4.297,7.763c0.702,1.302,1.385,2.613,2.036,3.942c0.655,1.327,1.329,2.644,1.969,3.979
			c0.621,1.345,1.2,2.709,1.801,4.061c0.304,0.674,0.516,1.391,0.777,2.083l0.727,2.094l-0.899-2.027
			c-0.306-0.672-0.558-1.362-0.903-2.016c-0.675-1.313-1.371-2.613-2.023-3.934c-0.688-1.304-1.413-2.59-2.117-3.886
			c-0.693-1.3-1.446-2.57-2.17-3.855c-1.423-2.584-2.911-5.133-4.387-7.688l-4.477-7.636l-0.101-0.173l0.037-0.184
			c0.681-3.335,1.301-6.683,2.032-10.009l0.122,0.373l-2.664-2.552l-0.136-0.131l0.034-0.172c0.356-1.789,0.714-3.577,1.104-5.36
			C183.72,243.716,184.092,241.931,184.501,240.151z"/>
	</g>
	<path fill="#FFFFFF" d="M220.524,217.187c0,0,29.105-4.307,39.149,0.527c22.942,11.041,37.843,86.983,29.499,99.391
		c-16.425,5.487-101.488,3.619-101.488,3.619l-0.962-20.108l56.695-6.203c0,0-3.649-34.304-4.699-45.755
		C236.1,220.115,220.524,217.187,220.524,217.187z"/>
	<path fill="#FAA819" d="M216.46,217.714l4.064-0.527c0,0-15.022,62.069-16.201,74.633c-0.918,9.752-17.914-37.829-16.097-56.764
		l3.698-3.489L216.46,217.714z"/>
	<path fill="#F3725D" d="M216.457,217.713c0,0-10.584,26.739-18.608,26.532c-8.018-0.215-5.452-10.058-5.452-10.058l-5.675-7.652
		c0,0,0.046-1.22,0.167-3.137c0.57-8.486,2.81-30.655,10.313-21.393C206.399,213.358,216.457,217.713,216.457,217.713z"/>
	<path fill="#DE5740" d="M192.396,234.188l-5.675-7.652c0,0,0.046-1.22,0.167-3.137l7.271-17.707
		C194.159,205.691,195.805,220.062,192.396,234.188z"/>
	<path fill="#56183D" d="M143.066,204.524c0,0,2.501,10.357,10.968,8.485c8.467-1.873-8.21-16.856-8.21-16.856"/>
	<polyline fill="#98CBCC" points="146.047,219.488 154.826,213.227 156.173,216.446 148.354,224.139 	"/>
	<path fill="#F3725D" d="M145.326,203.113c4.296,15.807,19.736,40.272,28.881,38.829c9.147-1.442,13.319-9.626,18.292-20.538
		c4.976-10.91,6.098-25.511,3.37-32.892c-2.729-7.381-10.43-22.304-26.796-20.217C152.707,170.381,142.707,193.473,145.326,203.113z
		"/>
	
		<ellipse transform="matrix(0.8607 -0.509 0.509 0.8607 -90.0809 110.4117)" fill="#5E0732" cx="156.763" cy="219.85" rx="1.474" ry="2.384"/>
	<path fill="#5E0732" d="M158.058,215.736c-0.845-0.598-2.004-1.131-3.055-0.829c-1.01,0.288-1.352,1.223-1.528,2.158
		c-0.068,0.36-0.683,0.349-0.664-0.04c0.06-1.211,0.63-2.396,1.853-2.794c1.366-0.443,2.699,0.266,3.754,1.083
		C158.7,215.535,158.343,215.938,158.058,215.736L158.058,215.736z"/>
	
		<ellipse transform="matrix(0.7815 -0.6239 0.6239 0.7815 -95.7938 151.9523)" fill="#5E0732" cx="169.054" cy="212.746" rx="1.475" ry="2.385"/>
	<path fill="#5E0732" d="M169.766,208.493c-0.92-0.474-2.139-0.845-3.142-0.399c-0.96,0.427-1.167,1.4-1.213,2.353
		c-0.017,0.364-0.628,0.439-0.662,0.051c-0.108-1.207,0.291-2.461,1.446-3.025c1.29-0.63,2.712-0.111,3.867,0.554
		C170.376,208.205,170.079,208.652,169.766,208.493L169.766,208.493z"/>
	<path fill="#72204D" d="M201.589,195.975c0.639-7.336,5.559-23.586-3.697-31.078c-5.689-4.608-12.78-3.389-16.038-2.461
		c-1.91-9.468-10.74-12.51-10.74-12.51c3.85,2.527,5.566,6.413,6.336,9.409c-3.256-3.847-9.406-8.847-17.606-5.345
		c-9.178,3.918-10.338,14.941-19.937,23.136c-8.171,6.975-13.553,4.02-13.553,4.02s-1.995,3.773-1.076,10.291
		c1.538,10.897,12.709,17.671,23,13.772c0.135-0.051,0.271-0.104,0.409-0.159c9.462-3.748,14.412-8.896,14.412-8.896
		s2.29,4.348,6.349,4.815c4.058,0.47,12.801,4.194,13.893,3.727c1.093-0.47-4.766-8.142-0.938-11.53
		c2.739-2.423,8.938,3.661,13.737,8.508c3.543,3.579,6.336,6.077,6.336,6.077S200.95,203.311,201.589,195.975z"/>
	<path fill="none" stroke="#DE5740" stroke-width="0.8068" stroke-linecap="round" stroke-miterlimit="10" d="M162.735,220.854
		c0,0,2.633,7.725,3.571,8.135c0.936,0.41,3.335-1.521,3.335-1.521"/>
	<path opacity="0.5" fill="#C3E6E4" d="M148.605,214.536l19.738-12.592c2.21-1.388,5.097-1.02,6.879,0.886
		c1.905,2.034,4.62,7.199,4.723,10.406c0.157,4.994-12.216,7.577-15.695,10.245c-2.391,1.834-6.434,8.427-11.525,4.981
		c-1.72-1.164-5.214-4.905-6.188-7.048C145.403,218.928,146.29,215.988,148.605,214.536z"/>
	<path fill="none" stroke="#98CBCC" stroke-width="1.0758" stroke-miterlimit="10" d="M148.605,214.536l19.738-12.592
		c2.21-1.388,5.097-1.02,6.879,0.886c1.905,2.034,4.62,7.199,4.723,10.406c0.157,4.994-12.216,7.577-15.695,10.245
		c-2.391,1.834-6.434,8.427-11.525,4.981c-1.72-1.164-5.214-4.905-6.188-7.048C145.403,218.928,146.29,215.988,148.605,214.536z"/>
	<polyline fill="#98CBCC" points="173.215,201.476 181.993,195.215 183.34,198.433 176.866,205.05 	"/>
	<path fill="#F3725D" d="M183.094,203.115c0,0-3.998-7.872-0.983-11.004c3.589-3.728,7.609,0.124,9.717,3.104
		c2.108,2.976,4.741,13.187,0.586,12.535"/>
	<path fill="none" stroke="#C2483A" stroke-width="0.8068" stroke-linecap="round" stroke-miterlimit="10" d="M168.354,235.856
		c0,0,4.02-1.287,7.609-5.228"/>
	<g>
		<g>
			<g>
				<path fill="#DE5740" d="M184.807,195.188c0.457,3.521,2.588,7.047,5.979,8.43c0.52,0.211,0.777-0.579,0.362-0.858
					c-2.834-1.911-4.83-4.234-5.424-7.695C185.635,194.548,184.739,194.667,184.807,195.188L184.807,195.188z"/>
			</g>
		</g>
		<g>
			<g>
				<path fill="#DE5740" d="M187.707,196.125c-0.911,1.538-1.096,3.811,0.118,5.254c0.323,0.384,0.946-0.026,0.816-0.476
					c-0.436-1.506-0.757-2.768-0.103-4.292C188.778,196.056,188.032,195.575,187.707,196.125L187.707,196.125z"/>
			</g>
		</g>
	</g>
	<path fill="#AAD8D3" d="M240.777,274.412l-17.039,0.602c-0.358,0.012-0.659-0.27-0.671-0.627l-0.133-3.736
		c-0.012-0.354,0.268-0.656,0.624-0.668l17.042-0.604c0.357-0.012,0.659,0.27,0.671,0.629l0.133,3.731
		C241.416,274.099,241.135,274.398,240.777,274.412z"/>
	<g>
		<path fill="#90BCB7" d="M240.472,247.174l0.904,5.878c0.272,1.963,0.591,3.919,0.927,5.87c0.331,1.952,0.643,3.905,0.99,5.854
			l1.036,5.848c0.331,1.951,0.733,3.891,1.085,5.838c0.351,1.947,0.726,3.891,1.109,5.831c0.755,3.884,1.55,7.765,2.358,11.627
			l0.215,1.027l-1.054,0.124c-2.548,0.302-5.094,0.62-7.645,0.892l-7.648,0.847c-5.104,0.516-10.205,1.067-15.315,1.521
			c-2.555,0.237-5.108,0.479-7.666,0.686c-2.557,0.214-5.112,0.437-7.673,0.62c-2.558,0.204-5.119,0.378-7.682,0.532
			c-2.563,0.165-5.124,0.336-7.691,0.447c2.534-0.431,5.074-0.801,7.613-1.178c2.539-0.387,5.079-0.755,7.623-1.093
			c2.541-0.358,5.087-0.678,7.632-1.005c2.544-0.336,5.092-0.636,7.639-0.939c5.093-0.629,10.195-1.161,15.294-1.729l7.655-0.778
			c2.552-0.271,5.107-0.493,7.661-0.733l-0.839,1.151c-0.761-3.905-1.479-7.804-2.112-11.723c-0.33-1.956-0.652-3.914-0.949-5.875
			c-0.297-1.962-0.61-3.92-0.871-5.888l-0.802-5.896c-0.244-1.969-0.451-3.944-0.679-5.915c-0.231-1.971-0.444-3.94-0.612-5.915
			L240.472,247.174z"/>
	</g>
	<path fill="#FFFFFF" d="M211.343,214.826c0,0,8.368-2.946,14.142,2.838c5.777,5.782-7.105,8.491-7.105,8.491
		S220.958,220.854,211.343,214.826z"/>
</g>
<g>
	<rect x="45.638" y="308.528" fill="#B9CFD7" width="71.392" height="8.576"/>
	<rect x="45.638" y="311.339" fill="#859EA5" width="71.392" height="5.766"/>
	<path fill="#9CBCC4" d="M76.323,317.104H63.245v-21.76c0-3.611,2.928-6.541,6.539-6.541l0,0c3.611,0,6.539,2.93,6.539,6.541
		V317.104z"/>
	
		<line fill="none" stroke="#9CBCC4" stroke-width="1.2026" stroke-miterlimit="10" x1="78.226" y1="299.455" x2="89.456" y2="288.226"/>
	
		<rect x="31.812" y="210.504" transform="matrix(0.7071 -0.7071 0.7071 0.7071 -145.6347 91.6669)" fill="#7F9FA5" width="12.054" height="22.267"/>
	<path fill="#708E92" d="M24.922,219.553L24.922,219.553c-0.962-0.964-0.962-2.524,0-3.488l7.196-7.196
		c0.963-0.964,2.524-0.964,3.488,0l0,0c0.963,0.965,0.963,2.524,0,3.486l-7.197,7.198C27.445,220.515,25.884,220.515,24.922,219.553
		z"/>
	<g>
		<path fill="#9CBCC4" d="M68.967,303.565c-18.504-0.411-33.875-15.188-34.994-33.641c-0.769-12.671,5.193-24.785,15.616-31.884
			c0.917,1.195,2.451,3.191,4.225,5.499c-8.053,5.318-13.001,14.45-13.001,24.152c0,15.971,12.998,28.964,28.975,28.964
			c2.109,0,4.218-0.23,6.269-0.685c0.232-0.051,0.469-0.077,0.703-0.077c1.832,0,3.378,1.594,3.378,3.48
			c0,1.645-1.145,3.041-2.783,3.396c-2.457,0.533-5,0.804-7.562,0.804C69.518,303.574,69.242,303.571,68.967,303.565z"/>
		<path fill="#86AEB2" d="M49.339,239.689c0.738,0.961,1.686,2.195,2.751,3.582c-7.758,5.621-12.48,14.749-12.48,24.421
			c0,16.634,13.538,30.166,30.177,30.166c2.196,0,4.393-0.239,6.527-0.712c0.148-0.032,0.297-0.049,0.444-0.049
			c1.179,0,2.176,1.043,2.176,2.277c0,1.073-0.755,1.986-1.836,2.221c-2.373,0.515-4.831,0.776-7.307,0.776
			c-0.265,0-0.531-0.003-0.798-0.009c-17.883-0.397-32.739-14.678-33.82-32.511C34.454,257.986,39.841,246.625,49.339,239.689
			 M49.862,236.421c-10.916,6.954-17.944,19.484-17.09,33.577c1.156,19.075,17.062,34.346,36.167,34.77
			c0.285,0.006,0.569,0.01,0.852,0.01c2.686,0,5.297-0.284,7.817-0.831c2.167-0.47,3.731-2.355,3.731-4.571
			c0-2.598-2.11-4.683-4.581-4.683c-0.316,0-0.638,0.034-0.962,0.105c-1.933,0.428-3.944,0.655-6.009,0.655
			c-15.344,0-27.772-12.441-27.772-27.761c0-10.137,5.443-19.013,13.559-23.836C52.873,240.343,50.571,237.346,49.862,236.421
			L49.862,236.421z"/>
	</g>
	
		<rect x="46.886" y="216.33" transform="matrix(0.7071 -0.7072 0.7072 0.7071 -152.7099 108.7218)" fill="#9CBCC4" width="15.972" height="44.702"/>
	
		<rect x="71.849" y="252.441" transform="matrix(0.7068 -0.7074 0.7074 0.7068 -161.3094 129.5184)" fill="#9CBCC4" width="7.495" height="13.844"/>
	<path fill="#9CBCC4" d="M101.491,269.104l-19.29,19.29c-0.454,0.452-1.189,0.452-1.643,0l-4.091-4.093
		c-0.454-0.454-0.454-1.189,0-1.642l19.29-19.289c0.453-0.456,1.189-0.456,1.643,0l4.092,4.091
		C101.944,267.914,101.944,268.65,101.491,269.104z"/>
	<path fill="#9CBCC4" d="M99.377,282.385l-12.149,12.147c-0.285,0.287-0.748,0.287-1.034,0l-2.577-2.578
		c-0.285-0.285-0.285-0.747,0-1.033l12.148-12.147c0.287-0.285,0.749-0.285,1.034,0l2.578,2.575
		C99.662,281.634,99.662,282.1,99.377,282.385z"/>
	<polygon fill="#859EA5" points="65.029,260.134 71.778,260.844 77.077,255.543 76.323,248.839 	"/>
	<circle fill="#B9CFD7" cx="69.855" cy="300.236" r="2.719"/>
	<circle fill="#859EA5" cx="48.58" cy="242.612" r="9.641"/>
	<circle fill="#9CBCC4" cx="48.58" cy="242.612" r="3.97"/>
	
		<line fill="none" stroke="#9CBCC4" stroke-width="3.6079" stroke-miterlimit="10" x1="72.172" y1="292.268" x2="83.402" y2="281.038"/>
</g>
<g>
	<path fill="#DE4675" d="M105.486,309.434c0,0,3.121-5.373,20.096-3.411c4.376,0.505,13.212,3.411,15.846,7.246"/>
	<path fill="#9ECCC9" d="M143.849,317.104h-39.288c-0.588,0-1.064-0.477-1.064-1.063v-7.894c0-0.63,0.555-1.115,1.179-1.032
		l38.974,5.178c0.722,0.097,1.264,0.713,1.264,1.44v2.308C144.912,316.628,144.437,317.104,143.849,317.104z"/>
</g>
<g>
	<g>
		<g>
			<path fill="#AAD8D3" d="M255.333,269.278v37.835c0,2.298,1.862,4.157,4.157,4.157c2.294,0,4.154-1.859,4.154-4.157v-37.835
				H255.333z"/>
			<path fill="#FAA819" d="M262.561,288.778v17.93c0,1.696-1.378,3.063-3.07,3.063c-1.696,0-3.073-1.367-3.073-3.063v-17.93H262.561
				z"/>
			<path fill="#AAD8D3" d="M263.595,271.081h-8.368c-0.789,0-1.427-0.64-1.427-1.429l0,0c0-0.788,0.638-1.427,1.427-1.427h8.368
				c0.788,0,1.427,0.639,1.427,1.427l0,0C265.021,270.441,264.383,271.081,263.595,271.081z"/>
			<rect x="255.333" y="271.081" opacity="0.5" fill="#AAD8D3" width="8.312" height="0.927"/>
		</g>
		<g>
			<path fill="#AAD8D3" d="M273.415,269.278v37.835c0,2.298,1.86,4.157,4.155,4.157c2.297,0,4.156-1.859,4.156-4.157v-37.835
				H273.415z"/>
			<path fill="#242464" d="M280.643,279.447v27.261c0,1.696-1.38,3.063-3.072,3.063c-1.693,0-3.071-1.367-3.071-3.063v-27.261
				H280.643z"/>
			<path fill="#AAD8D3" d="M281.673,271.081h-8.366c-0.789,0-1.429-0.64-1.429-1.429l0,0c0-0.788,0.64-1.427,1.429-1.427h8.366
				c0.789,0,1.429,0.639,1.429,1.427l0,0C283.102,270.441,282.462,271.081,281.673,271.081z"/>
			<rect x="273.415" y="271.081" opacity="0.5" fill="#AAD8D3" width="8.312" height="0.927"/>
		</g>
		<g>
			<path fill="#AAD8D3" d="M291.495,269.278v37.835c0,2.298,1.859,4.157,4.156,4.157c2.295,0,4.155-1.859,4.155-4.157v-37.835
				H291.495z"/>
			<path fill="#DE4675" d="M298.723,284.478v22.23c0,1.696-1.378,3.063-3.071,3.063c-1.695,0-3.072-1.367-3.072-3.063v-22.23
				H298.723z"/>
			<path fill="#AAD8D3" d="M299.753,271.081h-8.365c-0.788,0-1.427-0.64-1.427-1.429l0,0c0-0.788,0.639-1.427,1.427-1.427h8.365
				c0.789,0,1.428,0.639,1.428,1.427l0,0C301.181,270.441,300.542,271.081,299.753,271.081z"/>
			<rect x="291.495" y="271.081" opacity="0.5" fill="#AAD8D3" width="8.312" height="0.927"/>
		</g>
	</g>
	<path fill="#85B3AC" d="M305.671,278.18h-56.359c-0.967,0-1.746-0.781-1.746-1.746l0,0c0-0.963,0.779-1.744,1.746-1.744h56.359
		c0.964,0,1.745,0.781,1.745,1.744l0,0C307.416,277.398,306.635,278.18,305.671,278.18z"/>
	<path fill="#85B3AC" d="M310.87,317.104h-66.761c-1.142,0-2.066-0.927-2.066-2.067l0,0c0-1.142,0.925-2.068,2.066-2.068h66.761
		c1.142,0,2.067,0.927,2.067,2.068l0,0C312.938,316.178,312.012,317.104,310.87,317.104z"/>
	<g>
		<rect x="250.246" y="278.18" fill="#85B3AC" width="1.62" height="35.724"/>
		<rect x="303.114" y="278.18" fill="#85B3AC" width="1.623" height="35.724"/>
	</g>
</g>
<g>
	<path opacity="0.3" fill="#9ECCC9" d="M221.959,194.105h-4.527c-0.539,0-0.975-0.437-0.975-0.975v-4.527
		c0-0.541,0.436-0.975,0.975-0.975h4.527c0.539,0,0.976,0.434,0.976,0.975v4.527C222.935,193.669,222.498,194.105,221.959,194.105z"
		/>
	<path opacity="0.6" fill="#9ECCC9" d="M231.735,194.105h-4.529c-0.538,0-0.973-0.437-0.973-0.975v-4.527
		c0-0.541,0.435-0.975,0.973-0.975h4.529c0.537,0,0.973,0.434,0.973,0.975v4.527C232.708,193.669,232.272,194.105,231.735,194.105z"
		/>
	<path opacity="0.9" fill="#9ECCC9" d="M241.51,194.105h-4.528c-0.539,0-0.976-0.437-0.976-0.975v-4.527
		c0-0.541,0.437-0.975,0.976-0.975h4.528c0.539,0,0.973,0.434,0.973,0.975v4.527C242.482,193.669,242.049,194.105,241.51,194.105z"
		/>
	<path fill="#9ECCC9" d="M251.282,194.105h-4.526c-0.537,0-0.976-0.437-0.976-0.975v-4.527c0-0.541,0.438-0.975,0.976-0.975h4.526
		c0.538,0,0.976,0.434,0.976,0.975v4.527C252.258,193.669,251.82,194.105,251.282,194.105z"/>
	<path fill="#9ECCC9" d="M270.523,194.105h-4.527c-0.539,0-0.975-0.437-0.975-0.975v-4.527c0-0.541,0.436-0.975,0.975-0.975h4.527
		c0.539,0,0.976,0.434,0.976,0.975v4.527C271.499,193.669,271.063,194.105,270.523,194.105z"/>
</g>
<g>
	<path opacity="0.3" fill="#9ECCC9" d="M132.679,250.414h-4.529c-0.538,0-0.975-0.438-0.975-0.976v-4.529
		c0-0.537,0.437-0.973,0.975-0.973h4.529c0.539,0,0.974,0.436,0.974,0.973v4.529C133.652,249.976,133.218,250.414,132.679,250.414z"
		/>
	<path opacity="0.6" fill="#9ECCC9" d="M142.454,250.414h-4.529c-0.539,0-0.974-0.438-0.974-0.976v-4.529
		c0-0.537,0.435-0.973,0.974-0.973h4.529c0.536,0,0.975,0.436,0.975,0.973v4.529C143.429,249.976,142.99,250.414,142.454,250.414z"
		/>
	<path opacity="0.9" fill="#9ECCC9" d="M152.228,250.414h-4.528c-0.537,0-0.974-0.438-0.974-0.976v-4.529
		c0-0.537,0.437-0.973,0.974-0.973h4.528c0.539,0,0.974,0.436,0.974,0.973v4.529C153.201,249.976,152.767,250.414,152.228,250.414z"
		/>
	<path fill="#9ECCC9" d="M162.002,250.414h-4.528c-0.537,0-0.974-0.438-0.974-0.976v-4.529c0-0.537,0.437-0.973,0.974-0.973h4.528
		c0.539,0,0.976,0.436,0.976,0.973v4.529C162.978,249.976,162.541,250.414,162.002,250.414z"/>
</g>
<g>
	<path opacity="0.3" fill="#9ECCC9" d="M175.79,143.27h-2.474c-0.295,0-0.532-0.238-0.532-0.531v-2.474
		c0-0.294,0.237-0.532,0.532-0.532h2.474c0.293,0,0.531,0.238,0.531,0.532v2.474C176.321,143.031,176.083,143.27,175.79,143.27z"/>
	<path opacity="0.6" fill="#9ECCC9" d="M181.127,143.27h-2.473c-0.295,0-0.533-0.238-0.533-0.531v-2.474
		c0-0.294,0.238-0.532,0.533-0.532h2.473c0.294,0,0.532,0.238,0.532,0.532v2.474C181.659,143.031,181.421,143.27,181.127,143.27z"/>
	<path opacity="0.9" fill="#9ECCC9" d="M186.464,143.27h-2.472c-0.295,0-0.532-0.238-0.532-0.531v-2.474
		c0-0.294,0.237-0.532,0.532-0.532h2.472c0.295,0,0.532,0.238,0.532,0.532v2.474C186.996,143.031,186.759,143.27,186.464,143.27z"/>
	<path fill="#9ECCC9" d="M191.802,143.27h-2.473c-0.294,0-0.532-0.238-0.532-0.531v-2.474c0-0.294,0.238-0.532,0.532-0.532h2.473
		c0.294,0,0.531,0.238,0.531,0.532v2.474C192.333,143.031,192.096,143.27,191.802,143.27z"/>
</g>
<g>
	<g>
		<g>
			
				<ellipse transform="matrix(0.7766 -0.6301 0.6301 0.7766 -116.7396 111.5842)" fill="none" stroke="#9ECCC9" stroke-width="0.5331" stroke-miterlimit="10" cx="98.947" cy="220.377" rx="5.409" ry="13.362"/>
			
				<ellipse transform="matrix(0.9332 0.3593 -0.3593 0.9332 85.7838 -20.8353)" fill="none" stroke="#9ECCC9" stroke-width="0.5331" stroke-miterlimit="10" cx="98.947" cy="220.376" rx="5.409" ry="13.364"/>
			
				<ellipse transform="matrix(0.1592 0.9873 -0.9873 0.1592 300.7658 87.6163)" fill="none" stroke="#9ECCC9" stroke-width="0.5331" stroke-miterlimit="10" cx="98.947" cy="220.376" rx="5.409" ry="13.364"/>
		</g>
		<circle fill="#DE4675" cx="96.432" cy="221.493" r="1.725"/>
		<path fill="#DE4675" d="M102.111,220.029c0.601,0.741,0.487,1.828-0.253,2.43s-1.827,0.486-2.427-0.253
			c-0.601-0.741-0.488-1.828,0.252-2.43C100.425,219.179,101.511,219.291,102.111,220.029z"/>
		<circle fill="#DE4675" cx="99.177" cy="217.498" r="1.043"/>
	</g>
	<circle fill="none" stroke="#9ECCC9" stroke-miterlimit="10" cx="98.947" cy="220.375" r="18.426"/>
	
		<line fill="none" stroke="#9ECCC9" stroke-width="0.9407" stroke-miterlimit="10" x1="107.406" y1="236.744" x2="125.035" y2="265.111"/>
	<circle fill="#9ECCC9" cx="125.009" cy="265.058" r="2.239"/>
	<path fill="#9ECCC9" d="M137.514,215.938h-16.439c-0.478,0-0.863-0.386-0.863-0.863l0,0c0-0.479,0.386-0.865,0.863-0.865h16.439
		c0.477,0,0.864,0.387,0.864,0.865l0,0C138.378,215.552,137.99,215.938,137.514,215.938z"/>
	<path fill="#9ECCC9" d="M137.514,219.393h-16.439c-0.478,0-0.863-0.387-0.863-0.864l0,0c0-0.478,0.386-0.864,0.863-0.864h16.439
		c0.477,0,0.864,0.387,0.864,0.864l0,0C138.378,219.006,137.99,219.393,137.514,219.393z"/>
	<path fill="#9ECCC9" d="M129.166,222.848h-8.092c-0.478,0-0.863-0.389-0.863-0.864l0,0c0-0.479,0.386-0.864,0.863-0.864h8.092
		c0.476,0,0.863,0.386,0.863,0.864l0,0C130.029,222.459,129.642,222.848,129.166,222.848z"/>
</g>
<g>
	<g>
		<circle fill="#9ECCC9" cx="121.922" cy="121.499" r="4.245"/>
		<circle fill="#9ECCC9" cx="130.41" cy="130.64" r="3.156"/>
		<circle fill="#9ECCC9" cx="140.531" cy="119.541" r="2.285"/>
		<circle fill="#9ECCC9" cx="120.834" cy="140.325" r="5.333"/>
		<circle fill="#9ECCC9" cx="140.532" cy="135.706" r="4.026"/>
		<polyline fill="none" stroke="#9ECCC9" stroke-miterlimit="10" points="121.921,121.499 130.411,130.64 120.834,140.325 		"/>
		<polyline fill="none" stroke="#9ECCC9" stroke-miterlimit="10" points="140.529,119.541 130.411,130.64 140.529,135.706 		"/>
	</g>
	<g>
		<path fill="#9ECCC9" d="M176.6,125.466h-21.038c-0.479,0-0.864-0.386-0.864-0.863l0,0c0-0.478,0.386-0.864,0.864-0.864H176.6
			c0.477,0,0.864,0.387,0.864,0.864l0,0C177.464,125.08,177.076,125.466,176.6,125.466z"/>
		<path fill="#9ECCC9" d="M175.382,121.42h-18.603c-1.149,0-2.082-0.933-2.082-2.082l0,0c0-1.151,0.933-2.083,2.082-2.083h18.603
			c1.147,0,2.082,0.933,2.082,2.083l0,0C177.464,120.487,176.529,121.42,175.382,121.42z"/>
		<path fill="#9ECCC9" d="M166.261,128.922h-10.699c-0.479,0-0.864-0.388-0.864-0.865l0,0c0-0.478,0.386-0.865,0.864-0.865h10.699
			c0.479,0,0.864,0.388,0.864,0.865l0,0C167.125,128.534,166.739,128.922,166.261,128.922z"/>
		<path fill="#9ECCC9" d="M176.6,128.922h-7.49c-0.478,0-0.863-0.388-0.863-0.865l0,0c0-0.478,0.386-0.865,0.863-0.865h7.49
			c0.477,0,0.864,0.388,0.864,0.865l0,0C177.464,128.534,177.076,128.922,176.6,128.922z"/>
		<path fill="#9ECCC9" d="M163.651,132.375h-8.09c-0.479,0-0.864-0.386-0.864-0.864l0,0c0-0.477,0.386-0.863,0.864-0.863h8.09
			c0.479,0,0.864,0.386,0.864,0.863l0,0C164.516,131.989,164.13,132.375,163.651,132.375z"/>
	</g>
	<path fill="none" stroke="#9ECCC9" stroke-miterlimit="10" d="M147.564,149.476H113.44c-1.019,0-1.845-0.826-1.845-1.847v-34.125
		c0-1.019,0.826-1.844,1.845-1.844h34.124c1.019,0,1.846,0.826,1.846,1.844v34.125C149.41,148.649,148.583,149.476,147.564,149.476z
		"/>
</g>
<g>
	<g>
		<g>
			<path fill="none" stroke="#9ECCC9" stroke-width="0.4581" stroke-miterlimit="10" d="M289.119,215.571
				c-2.042,6.005-5.667,10.202-8.098,9.376c-2.429-0.824-2.744-6.363-0.704-12.368c2.042-6.004,5.665-10.204,8.097-9.377
				C290.842,204.028,291.161,209.567,289.119,215.571z"/>
			
				<ellipse transform="matrix(0.1929 0.9812 -0.9812 0.1929 439.844 -106.5951)" fill="none" stroke="#9ECCC9" stroke-width="0.4581" stroke-miterlimit="10" cx="284.719" cy="214.076" rx="4.649" ry="11.485"/>
			
				<ellipse transform="matrix(-0.7507 0.6606 -0.6606 -0.7507 639.887 186.7018)" fill="none" stroke="#9ECCC9" stroke-width="0.4581" stroke-miterlimit="10" cx="284.719" cy="214.076" rx="4.648" ry="11.483"/>
		</g>
		<path fill="#9ECCC9" d="M285.021,215.721c-0.183,0.544-0.771,0.832-1.313,0.646c-0.541-0.182-0.832-0.771-0.646-1.312
			c0.185-0.54,0.771-0.831,1.312-0.646C284.916,214.594,285.204,215.181,285.021,215.721z"/>
		<path fill="#9ECCC9" d="M309.332,232.55c-0.119,0.35-0.504,0.537-0.853,0.418c-0.354-0.118-0.541-0.5-0.422-0.851
			c0.118-0.352,0.5-0.54,0.851-0.422C309.264,231.814,309.45,232.196,309.332,232.55z"/>
		<circle fill="#9ECCC9" cx="283.229" cy="212.148" r="1.482"/>
		<circle fill="#9ECCC9" cx="291.948" cy="222.76" r="1.482"/>
		<circle fill="#9ECCC9" cx="286.772" cy="213.352" r="1.347"/>
	</g>
	<g>
		<path fill="#9ECCC9" d="M322.462,235.357h-10.987c-0.251,0-0.453-0.203-0.453-0.453l0,0c0-0.248,0.202-0.449,0.453-0.449h10.987
			c0.251,0,0.453,0.201,0.453,0.449l0,0C322.915,235.154,322.713,235.357,322.462,235.357z"/>
		<path fill="#9ECCC9" d="M321.825,233.244h-9.714c-0.602,0-1.09-0.488-1.09-1.09l0,0c0-0.602,0.488-1.086,1.09-1.086h9.714
			c0.602,0,1.09,0.484,1.09,1.086l0,0C322.915,232.756,322.427,233.244,321.825,233.244z"/>
		<path fill="#9ECCC9" d="M317.062,237.162h-5.587c-0.251,0-0.453-0.204-0.453-0.453l0,0c0-0.248,0.202-0.45,0.453-0.45h5.587
			c0.251,0,0.452,0.202,0.452,0.45l0,0C317.514,236.958,317.313,237.162,317.062,237.162z"/>
		<path fill="#9ECCC9" d="M322.462,237.162h-3.911c-0.248,0-0.453-0.204-0.453-0.453l0,0c0-0.248,0.205-0.45,0.453-0.45h3.911
			c0.251,0,0.453,0.202,0.453,0.45l0,0C322.915,236.958,322.713,237.162,322.462,237.162z"/>
		<path fill="#9ECCC9" d="M315.699,238.966h-4.225c-0.251,0-0.453-0.201-0.453-0.452l0,0c0-0.248,0.202-0.453,0.453-0.453h4.225
			c0.251,0,0.453,0.205,0.453,0.453l0,0C316.152,238.765,315.95,238.966,315.699,238.966z"/>
	</g>
	
		<polyline fill="none" stroke="#9ECCC9" stroke-width="0.4581" stroke-linecap="round" stroke-linejoin="round" stroke-miterlimit="10" points="
		292.011,222.698 301.644,232.331 308.694,232.331 	"/>
</g>
<g>
	<path fill="#536785" d="M321.193,324.879H29.41c-2.144,0-3.882-1.739-3.882-3.882l0,0c0-2.143,1.738-3.882,3.882-3.882h291.784
		c2.144,0,3.883,1.739,3.883,3.882l0,0C325.076,323.14,323.337,324.879,321.193,324.879z"/>
	
		<line fill="none" stroke="#536785" stroke-width="3" stroke-linecap="round" stroke-miterlimit="10" x1="80.521" y1="330.115" x2="162.735" y2="330.115"/>
	
		<line fill="none" stroke="#536785" stroke-width="3" stroke-linecap="round" stroke-miterlimit="10" x1="171.578" y1="330.115" x2="207.486" y2="330.115"/>
</g>
</svg>
