<?xml version="1.0" encoding="utf-8"?>
<!-- Generator: Adobe Illustrator 16.0.0, SVG Export Plug-In . SVG Version: 6.00 Build 0)  -->
<!DOCTYPE svg PUBLIC "-//W3C//DTD SVG 1.1//EN" "http://www.w3.org/Graphics/SVG/1.1/DTD/svg11.dtd">
<svg version="1.1" id="Layer_1" xmlns="http://www.w3.org/2000/svg" xmlns:xlink="http://www.w3.org/1999/xlink" x="0px" y="0px"
	 width="67px" height="67.667px" viewBox="0 0 67 67.667" enable-background="new 0 0 67 67.667" xml:space="preserve">
<path fill="none" stroke="#00A1D2" stroke-width="1.3469" stroke-linecap="round" stroke-linejoin="round" stroke-miterlimit="10" d="
	M20.662,18.888l-1.51,2.477c0,0-5.735,7.866,6.555,20.241l-0.002,0.003c0.02,0.019,0.039,0.037,0.059,0.056
	c0.02,0.021,0.037,0.04,0.057,0.059l0.001-0.002c12.376,12.291,20.242,6.556,20.242,6.556l2.478-1.51
	c1.421-1.066,1.569-3.145,0.313-4.401l-2.954-2.953c-1.028-1.028-2.654-1.144-3.817-0.272l-3.144,2.011c0,0-2.113,1.247-8.021-4.639
	c-5.886-5.909-4.64-8.021-4.64-8.021l2.011-3.145c0.872-1.162,0.756-2.789-0.271-3.816l-2.954-2.954
	C23.807,17.319,21.729,17.467,20.662,18.888z"/>
<g>
	
		<circle fill="none" stroke="#929292" stroke-miterlimit="10" stroke-dasharray="1.9982,1.9982" cx="33.763" cy="33.667" r="29.266"/>
</g>
</svg>
